<svg width="34" height="35" viewBox="0 0 34 35" fill="none" xmlns="http://www.w3.org/2000/svg">
<g clip-path="url(#clip0_57_4385)">
<g filter="url(#filter0_d_57_4385)">
<path d="M31 17.8926C31 10.1606 24.732 3.89258 17 3.89258C9.26801 3.89258 3 10.1606 3 17.8926C3 25.6246 9.26801 31.8926 17 31.8926C24.732 31.8926 31 25.6246 31 17.8926Z" fill="white"/>
<path d="M19.9697 18.3172C19.9697 18.4587 19.9104 18.5943 19.8053 18.6933L14.9615 23.2576C14.7454 23.4612 14.3986 23.4578 14.1869 23.2501C13.9751 23.0424 13.9786 22.7089 14.1947 22.5054L18.6393 18.3172L14.1947 14.1291C13.9786 13.9255 13.9751 13.5921 14.1869 13.3843C14.3986 13.1766 14.7454 13.1732 14.9615 13.3768L19.8053 17.9411C19.9104 18.0401 19.9697 18.1757 19.9697 18.3172Z" fill="#171717"/>
</g>
</g>
<defs>
<filter id="filter0_d_57_4385" x="-5" y="-4.10742" width="44" height="44" filterUnits="userSpaceOnUse" color-interpolation-filters="sRGB">
<feFlood flood-opacity="0" result="BackgroundImageFix"/>
<feColorMatrix in="SourceAlpha" type="matrix" values="0 0 0 0 0 0 0 0 0 0 0 0 0 0 0 0 0 0 127 0" result="hardAlpha"/>
<feOffset/>
<feGaussianBlur stdDeviation="4"/>
<feComposite in2="hardAlpha" operator="out"/>
<feColorMatrix type="matrix" values="0 0 0 0 0 0 0 0 0 0 0 0 0 0 0 0 0 0 0.08 0"/>
<feBlend mode="normal" in2="BackgroundImageFix" result="effect1_dropShadow_57_4385"/>
<feBlend mode="normal" in="SourceGraphic" in2="effect1_dropShadow_57_4385" result="shape"/>
</filter>
<clipPath id="clip0_57_4385">
<rect width="34" height="34" fill="white" transform="translate(0 0.892578)"/>
</clipPath>
</defs>
</svg>
