<svg width="322" height="132" viewBox="0 0 322 132" fill="none" xmlns="http://www.w3.org/2000/svg">
<path d="M0.365845 114.14L1.48301 115.611L2.60018 104.393L3.71734 100.768L4.83451 104.922L5.95167 109.697L7.06884 105.309L8.186 98.1857L9.30317 105.292L10.4203 117.485L11.5375 109.921L12.6547 104.678L13.7718 99.7515L14.889 99.5828L16.0062 102.02L17.1233 90.094L18.2405 83.9821L19.3577 83.8884L20.4748 86.5791L21.592 94.1162L22.7092 91.7184L23.8263 99.0907L24.9435 95.9111L26.0606 96.4216L27.1778 99.6845L28.295 102.398L29.4121 97.4084L30.5293 90.7963L31.6465 93.4796L32.7636 93.8788L33.8808 94.6954L34.998 99.6843L36.1151 106.904L37.2323 107.882L38.3495 101.72L39.4666 102.737L40.5838 96.4271L41.701 89.4432L42.8181 84.2401L43.9353 80.6259L45.0525 82.0233L46.1696 83.67L47.2868 83.6225L48.4039 77.3496L49.5211 81.9558L50.6383 85.101L51.7554 81.5108L52.8726 79.4511L53.9898 76.9858L55.1069 80.9472L56.2241 85.551L57.3413 91.2215L58.4584 88.4617L59.5756 89.1634L60.6928 91.3422L61.8099 90.8032L62.9271 96.6695L64.0443 92.4715L65.1614 92.4468L66.2786 94.6269L67.3958 97.7632L68.5129 99.524L69.6301 95.1996L70.7473 96.9865L71.8644 102.669L72.9816 106.748L74.0988 100.056L75.2159 94.4882L76.3331 87.3629L77.4502 82.134L78.5674 83.0526L79.6846 87.0005L80.8017 88.358L81.9189 83.8622L83.0361 83.2344L84.1532 86.5645L85.2704 86.0478L86.3876 82.5858L87.5047 81.1191L88.6219 80.3804L89.7391 79.6686L90.8562 72.7897L91.9734 87.6348L93.0906 95.0496L94.2077 90.1296L95.3249 81.494L96.4421 83.7607L97.5592 83.5408L98.6764 88.0174L99.7936 89.5679L100.911 94.0764L102.028 91.3945L103.145 85.2713L104.262 87.4692L105.379 92.3788L106.497 99.7072L107.614 90.4173L108.731 89.0163L109.848 92.4183L110.965 95.2276L112.082 99.8253L113.2 98.9956L114.317 97.417L115.434 100.369L116.551 98.806L117.668 101.717L118.785 100.097L119.903 93.4014L121.02 82.2917L122.137 98.2253L123.254 120.937L126.606 34.5114L128.84 27.2959L129.957 19.1549L131.074 8.94304L132.191 8.34435L133.309 0.888035L134.426 0.444336L135.543 16.2665L136.66 29.9338L137.777 25.39L138.894 34.7511L140.012 36.1279L141.129 49.9533L142.246 54.1604L143.363 77.3862L144.48 77.6268L145.597 89.745L146.714 88.4169L147.832 93.3403L148.949 85.722L150.066 80.6808L151.183 75.2478L152.3 72.9614L153.417 75.3316L154.535 78.2699L155.652 86.5932L156.769 95.3251L157.886 83.8493L159.003 84.964L160.12 91.1742L161.238 93.1026L162.355 88.2487L163.472 92.2771L164.589 91.084L165.706 87.2822L166.823 84.79L167.941 91.4214L169.058 91.4085L170.175 93.2801L171.292 98.9775L172.409 90.1811L173.526 82.4999L174.644 73.5805L175.761 77.4166L176.878 76.5692L177.995 76.0801L179.112 77.5377L180.229 70.3184L181.347 65.6115L182.464 62.8793L183.581 64.8064L184.698 61.6695L185.815 58.7866L186.932 51.0323L188.05 53.5559L189.167 51.0616L190.284 54.6946L191.401 55.6305L192.518 50.4627L193.635 53.8587L194.753 53.7936L195.87 53.1753L196.987 45.8758L198.104 43.3723L199.221 37.1137L200.338 44.87L201.456 46.2128L202.573 51.0708L203.69 48.7106L204.807 63.8384L205.924 65.3559L207.041 63.5993L208.159 66.6096L209.276 74.4627L210.393 66.1559L211.51 69.0108L212.627 68.6262L213.744 67.2248L214.862 61.8747L215.979 58.5202L217.096 54.9196L218.213 56.282L219.33 56.7319L220.447 61.194L221.565 61.9189L222.682 46.2023L223.799 50.6674L224.916 61.4472L226.033 56.3438L227.15 51.7342L228.268 43.9518L229.385 57.6343L230.502 46.3785L231.619 51.008L232.736 53.2761L233.853 47.3091L234.971 41.676L236.088 48.7426L237.205 44.8892L238.322 49.2923L239.439 40.9231L240.556 40.802L241.674 47.5581L242.791 49.3888L243.908 49.6051L245.025 45.1352L246.142 45.8531L247.259 46.2711L248.377 38.3577L249.494 59.2138L250.611 60.7641L251.728 60.1514L252.845 45.1185L253.962 48.6023L255.08 56.4809L256.197 63.5539L257.314 68.7555L258.431 78.4806L259.548 74.054L260.665 72.1249L261.783 67.6386L262.9 66.5292L264.017 64.5239L265.134 73.5927L266.251 72.6547L267.368 73.4265L268.486 70.5429L269.603 71.3803L270.72 71.8678L271.837 67.0382L272.954 62.4386L274.071 64.5826L275.188 63.5663L276.306 51.3455L277.423 63.5498L278.54 72.3029L279.657 63.7171L280.774 70.5454L281.891 67.6535L283.009 67.0378L284.126 73.4561L285.243 73.7798L286.36 66.3132L287.477 73.6236L288.594 84.1448L289.712 84.6985L290.829 83.9083L291.946 81.9805L293.063 86.9308L294.18 85.5054L295.297 79.059L296.415 79.7508L297.532 76.7112L298.649 78.3841L299.766 77.3074L300.883 82.1038L302 84.8969L303.118 89.0954L304.235 84.6902L305.352 94.6144L306.469 85.3221L307.586 82.3118L308.703 91.4494L309.821 94.1916L310.938 89.7941L312.055 90.4235L313.172 98.9998L314.289 95.5865L315.406 93.7263L316.524 91.7868L317.641 94.2078L318.758 89.6168L319.875 86.7056L320.992 83.3567V131.497H319.875H318.758H317.641H316.524H315.406H314.289H313.172H312.055H310.938H309.821H308.703H307.586H306.469H305.352H304.235H303.118H302H300.883H299.766H298.649H297.532H296.415H295.297H294.18H293.063H291.946H290.829H289.712H288.594H287.477H286.36H285.243H284.126H283.009H281.891H280.774H279.657H278.54H277.423H276.306H275.188H274.071H272.954H271.837H270.72H269.603H268.486H267.368H266.251H265.134H264.017H262.9H261.783H260.665H259.548H258.431H257.314H256.197H255.08H253.962H252.845H251.728H250.611H249.494H248.377H247.259H246.142H245.025H243.908H242.791H241.674H240.556H239.439H238.322H237.205H236.088H234.971H233.853H232.736H231.619H230.502H229.385H228.268H227.15H226.033H224.916H223.799H222.682H221.565H220.447H219.33H218.213H217.096H215.979H214.862H213.744H212.627H211.51H210.393H209.276H208.159H207.041H205.924H204.807H203.69H202.573H201.456H200.338H199.221H198.104H196.987H195.87H194.753H193.635H192.518H191.401H190.284H189.167H188.05H186.932H185.815H184.698H183.581H182.464H181.347H180.229H179.112H177.995H176.878H175.761H174.644H173.526H172.409H171.292H170.175H169.058H167.941H166.823H165.706H164.589H163.472H162.355H161.238H160.12H159.003H157.886H156.769H155.652H154.535H153.417H152.3H151.183H150.066H148.949H147.832H146.714H145.597H144.48H143.363H142.246H141.129H140.012H138.894H137.777H136.66H135.543H134.426H133.309H132.191H131.074H129.957H128.84H127.723H126.606H125.488H124.371H123.254H122.137H121.02H119.903H118.785H117.668H116.551H115.434H114.317H113.2H112.082H110.965H109.848H108.731H107.614H106.497H105.379H104.262H103.145H102.028H100.911H99.7936H98.6764H97.5592H96.4421H95.3249H94.2077H93.0906H91.9734H90.8562H89.7391H88.6219H87.5047H86.3876H85.2704H84.1532H83.0361H81.9189H80.8017H79.6846H78.5674H77.4502H76.3331H75.2159H74.0988H72.9816H71.8644H70.7473H69.6301H68.5129H67.3958H66.2786H65.1614H64.0443H62.9271H61.8099H60.6928H59.5756H58.4584H57.3413H56.2241H55.1069H53.9898H52.8726H51.7554H50.6383H49.5211H48.4039H47.2868H46.1696H45.0525H43.9353H42.8181H41.701H40.5838H39.4666H38.3495H37.2323H36.1151H34.998H33.8808H32.7636H31.6465H30.5293H29.4121H28.295H27.1778H26.0606H24.9435H23.8263H22.7092H21.592H20.4748H19.3577H18.2405H17.1233H16.0062H14.889H13.7718H12.6547H11.5375H10.4203H9.30317H8.186H7.06884H5.95167H4.83451H3.71734H2.60018H1.48301H0.365845V114.14Z" fill="url(#paint0_linear_57_537)"/>
<path d="M0.365845 114.14L1.48301 115.611L2.60018 104.393L3.71734 100.768L4.83451 104.922L5.95167 109.697L7.06884 105.309L8.186 98.1857L9.30317 105.292L10.4203 117.485L11.5375 109.921L12.6547 104.678L13.7718 99.7516L14.889 99.5828L16.0062 102.02L17.1233 90.094L18.2405 83.9821L19.3577 83.8884L20.4748 86.5791L21.592 94.1162L22.7092 91.7184L23.8263 99.0907L24.9435 95.9111L26.0606 96.4216L27.1778 99.6845L28.295 102.398L29.4121 97.4084L30.5293 90.7963L31.6465 93.4796L32.7636 93.8788L33.8808 94.6954L34.998 99.6843L36.1151 106.904L37.2323 107.882L38.3495 101.72L39.4666 102.737L40.5838 96.4271L41.701 89.4432L42.8181 84.2401L43.9353 80.6259L45.0525 82.0233L46.1696 83.67L47.2868 83.6225L48.404 77.3496L49.5211 81.9558L50.6383 85.101L51.7554 81.5108L52.8726 79.4511L53.9898 76.9858L55.1069 80.9472L56.2241 85.551L57.3413 91.2215L58.4584 88.4617L59.5756 89.1634L60.6928 91.3422L61.8099 90.8032L62.9271 96.6695L64.0443 92.4715L65.1614 92.4468L66.2786 94.6269L67.3958 97.7632L68.5129 99.524L69.6301 95.1996L70.7473 96.9865L71.8644 102.669L72.9816 106.748L74.0988 100.056L75.2159 94.4882L76.3331 87.3629L77.4502 82.134L78.5674 83.0526L79.6846 87.0005L80.8017 88.358L81.9189 83.8622L83.0361 83.2344L84.1532 86.5645L85.2704 86.0478L86.3876 82.5858L87.5047 81.1191L88.6219 80.3804L89.7391 79.6686L90.8562 72.7897L91.9734 87.6348L93.0906 95.0496L94.2077 90.1296L95.3249 81.494L96.4421 83.7607L97.5592 83.5408L98.6764 88.0174L99.7936 89.5679L100.911 94.0764L102.028 91.3945L103.145 85.2713L104.262 87.4692L105.379 92.3788L106.497 99.7072L107.614 90.4173L108.731 89.0163L109.848 92.4183L110.965 95.2276L112.082 99.8253L113.2 98.9956L114.317 97.417L115.434 100.369L116.551 98.806L117.668 101.717L118.785 100.097L119.903 93.4014L121.02 82.2917L122.137 98.2253L123.254 113.162L126.606 34.5114L128.84 27.2959L129.957 19.1549L131.074 8.94304L132.191 8.34435L133.309 0.888035L134.426 0.444336L135.543 16.2665L136.66 29.9338L137.777 25.39L138.894 34.7511L140.012 36.1279L141.129 49.9533L142.246 54.1604L143.363 77.3862L144.48 77.6268L145.597 89.745L146.714 88.4169L147.832 93.3403L148.949 85.722L150.066 80.6808L151.183 75.2478L152.3 72.9614L153.417 75.3316L154.535 78.2699L155.652 86.5932L156.769 95.3251L157.886 83.8493L159.003 84.964L160.12 91.1742L161.238 93.1026L162.355 88.2487L163.472 92.2771L164.589 91.084L165.706 87.2822L166.823 84.79L167.941 91.4214L169.058 91.4085L170.175 93.2801L171.292 98.9775L172.409 90.1811L173.526 82.4999L174.644 73.5805L175.761 77.4166L176.878 76.5692L177.995 76.0801L179.112 77.5377L180.229 70.3184L181.347 65.6115L182.464 62.8793L183.581 64.8064L184.698 61.6695L185.815 58.7866L186.932 51.0323L188.05 53.5559L189.167 51.0616L190.284 54.6946L191.401 55.6305L192.518 50.4627L193.635 53.8587L194.753 53.7936L195.87 53.1753L196.987 45.8758L198.104 43.3723L199.221 37.1137L200.338 44.87L201.456 46.2128L202.573 51.0708L203.69 48.7106L204.807 63.8384L205.924 65.3559L207.041 63.5993L208.159 66.6096L209.276 74.4627L210.393 66.1559L211.51 69.0108L212.627 68.6262L213.744 67.2248L214.862 61.8747L215.979 58.5202L217.096 54.9196L218.213 56.282L219.33 56.7319L220.447 61.194L221.565 61.9189L222.682 46.2023L223.799 50.6674L224.916 61.4472L226.033 56.3438L227.15 51.7342L228.268 43.9518L229.385 57.6343L230.502 46.3785L231.619 51.008L232.736 53.2761L233.853 47.3091L234.971 41.676L236.088 48.7426L237.205 44.8892L238.322 49.2923L239.439 40.9231L240.556 40.802L241.674 47.5581L242.791 49.3888L243.908 49.6051L245.025 45.1352L246.142 45.8531L247.259 46.2711L248.377 38.3577L249.494 59.2138L250.611 60.7641L251.728 60.1514L252.845 45.1185L253.962 48.6023L255.08 56.4809L256.197 63.5539L257.314 68.7555L258.431 78.4806L259.548 74.054L260.665 72.1249L261.783 67.6386L262.9 66.5292L264.017 64.5239L265.134 73.5927L266.251 72.6547L267.368 73.4265L268.486 70.5429L269.603 71.3803L270.72 71.8678L271.837 67.0382L272.954 62.4386L274.071 64.5826L275.188 63.5663L276.306 51.3455L277.423 63.5498L278.54 72.3029L279.657 63.7171L280.774 70.5454L281.891 67.6535L283.009 67.0378L284.126 73.4561L285.243 73.7798L286.36 66.3132L287.477 73.6236L288.594 84.1448L289.712 84.6985L290.829 83.9083L291.946 81.9805L293.063 86.9308L294.18 85.5054L295.297 79.059L296.415 79.7508L297.532 76.7112L298.649 78.3841L299.766 77.3074L300.883 82.1038L302 84.8969L303.118 89.0954L304.235 84.6902L305.352 94.6144L306.469 85.3221L307.586 82.3118L308.703 91.4494L309.821 94.1916L310.938 89.7941L312.055 90.4235L313.172 98.9998L314.289 95.5865L315.406 93.7263L316.524 91.7868L317.641 94.2078L318.758 89.6168L319.875 86.7056L320.992 83.3567" stroke="#0052FE" stroke-width="0.616487" stroke-linecap="round" stroke-linejoin="round"/>
<defs>
<linearGradient id="paint0_linear_57_537" x1="0.365845" y1="0.444336" x2="0.365845" y2="131.497" gradientUnits="userSpaceOnUse">
<stop stop-color="#1053D2" stop-opacity="0.2"/>
<stop offset="0.95" stop-color="white" stop-opacity="0.05"/>
</linearGradient>
</defs>
</svg>
